# Blender v3.0.1 OBJ File: ''
# www.blender.org
mtllib tree_1.mtl
o Cylinder.002
v 0.008643 0.299846 -0.272254
v 0.000000 4.808134 -0.121497
v 0.171913 0.082101 -0.389209
v 0.046495 4.808134 -0.112249
v 0.216305 0.292188 -0.186816
v 0.085911 4.808134 -0.085912
v 0.406857 0.065781 -0.155665
v 0.112248 4.808134 -0.046495
v 0.301152 0.303970 0.020626
v 0.121497 4.808134 -0.000001
v 0.278257 0.308176 0.132279
v 0.112248 4.808134 0.046494
v 0.294187 0.161595 0.297232
v 0.085911 4.808134 0.085911
v 0.161994 0.160848 0.386638
v 0.046495 4.808134 0.112248
v 0.006570 0.288716 0.318017
v 0.000000 4.808134 0.121496
v -0.143457 0.036871 0.383954
v -0.046495 4.808134 0.112248
v -0.201914 0.277455 0.233078
v -0.085911 4.808134 0.085911
v -0.386493 0.096744 0.172253
v -0.112248 4.808134 0.046494
v -0.285062 0.289698 0.020797
v -0.121497 4.808134 -0.000001
v -0.399341 0.058096 -0.159393
v -0.112248 4.808134 -0.046495
v -0.289220 0.298265 -0.288411
v -0.085911 4.808134 -0.085912
v -0.160661 0.059345 -0.395971
v -0.046495 4.808134 -0.112249
v -0.003075 1.204752 -0.164365
v -0.006304 2.108049 -0.191062
v -0.013960 2.989546 -0.158823
v -0.024938 3.900312 -0.156982
v 0.027784 3.906076 -0.152168
v 0.046567 2.997542 -0.141580
v 0.059992 2.107172 -0.174462
v 0.071651 1.210680 -0.165690
v 0.073747 3.914300 -0.128223
v 0.096883 3.003009 -0.105650
v 0.117975 2.107217 -0.130422
v 0.133318 1.215223 -0.132836
v 0.105040 3.923233 -0.088959
v 0.129859 3.005800 -0.055651
v 0.158882 2.108531 -0.066587
v 0.173873 1.216770 -0.072020
v 0.115689 3.930990 -0.039805
v 0.141181 3.006526 0.001735
v 0.176221 2.111827 0.006389
v 0.189101 1.213792 0.005921
v 0.104162 3.935994 0.013173
v 0.129654 3.005907 0.058351
v 0.166801 2.117949 0.076668
v 0.177991 1.206075 0.087862
v 0.073098 3.937238 0.063251
v 0.096875 3.004254 0.105587
v 0.131348 2.127681 0.133164
v 0.140872 1.195872 0.160365
v 0.028277 3.935298 0.101741
v 0.047357 3.001352 0.135744
v 0.074740 2.140722 0.167527
v 0.081502 1.186246 0.211812
v -0.022714 3.931338 0.121116
v -0.011883 2.996688 0.143459
v 0.006009 2.153654 0.176278
v 0.007603 1.179890 0.235037
v -0.072286 3.926536 0.117451
v -0.072203 2.989996 0.126873
v -0.063471 2.160684 0.159397
v -0.069969 1.178146 0.228984
v -0.113616 3.921365 0.091777
v -0.124518 2.981881 0.088244
v -0.121797 2.157751 0.119112
v -0.138438 1.179502 0.197940
v -0.141247 3.915809 0.048886
v -0.160628 2.974021 0.033764
v -0.158057 2.146818 0.082444
v -0.186050 1.182130 0.147242
v -0.151667 3.909896 -0.004071
v -0.174512 2.968671 -0.027482
v -1.260401 2.642371 -0.060708
v -0.204372 1.185048 0.081993
v -0.143474 3.904141 -0.058800
v -0.163345 2.967824 -0.085099
v -1.133165 2.402495 -0.089677
v -0.190118 1.188407 0.007732
v -0.117199 3.899766 -0.106903
v -0.128360 2.972280 -0.129547
v -0.117803 2.109036 -0.152605
v -0.145941 1.193004 -0.067619
v -0.075849 3.898156 -0.141240
v -0.075582 2.980330 -0.154963
v -0.071218 2.110394 -0.177337
v -0.079780 1.198616 -0.129297
v 0.088521 0.739707 -0.211596
v 0.163938 0.742114 -0.165630
v 0.213986 0.742934 -0.090663
v 0.232084 0.741356 0.001053
v 0.216169 0.737266 0.094890
v 0.167942 0.731859 0.176051
v 0.093742 0.726757 0.231871
v 0.004167 0.723388 0.254208
v -0.087354 0.722464 0.240972
v -0.166376 0.723182 0.195965
v -0.220164 0.724576 0.126362
v -0.239902 0.726121 0.041372
v -0.222321 0.727902 -0.048395
v -0.170353 0.730338 -0.131064
v -0.092554 0.733313 -0.192308
v -0.001492 0.736565 -0.220920
v -0.006694 2.152884 -0.189423
v 0.059310 2.152458 -0.172790
v 0.116902 2.152780 -0.129162
v 0.157406 2.154168 -0.066031
v 0.174439 2.157333 0.006152
v 0.164911 2.163112 0.075737
v 0.129594 2.172266 0.131761
v 0.073348 2.184496 0.165911
v 0.005099 2.196532 0.174609
v -0.063915 2.202865 0.157742
v -0.121935 2.199668 0.117542
v -0.158711 2.195356 0.074840
v -0.771397 2.295736 -0.102448
v -0.771988 2.307570 -0.076088
v -0.115315 2.160456 -0.157502
v -0.071440 2.154642 -0.176199
v -1.131926 2.410697 -0.069833
v -1.253895 2.648431 -0.040025
v -0.770675 2.282106 -0.109623
v -1.134971 2.391207 -0.096786
v -1.270263 2.632694 -0.065067
v -1.280227 2.622354 -0.051828
v -1.137169 2.379471 -0.089845
v -0.769692 2.268291 -0.097338
v -0.181125 2.136146 0.038051
v -0.175857 2.108942 0.012044
v -0.178216 2.089222 0.038301
v -0.172541 2.118449 0.061522
v -0.159346 2.094794 -0.095554
v -0.156522 2.118188 -0.123608
v -0.140180 2.089102 -0.138095
v -0.153145 2.065864 -0.113966
v -0.172912 2.201317 0.015356
v -0.179140 2.181792 0.043198
v -0.174166 2.205494 0.059921
v -0.175152 2.227281 0.042704
v -0.161056 2.175557 -0.127361
v -0.157502 2.201779 -0.107679
v -0.155967 2.223651 -0.125301
v -0.146859 2.190611 -0.145925
v -0.289557 2.164567 -0.002972
v -0.274279 2.137544 0.001807
v -0.264770 2.123522 -0.011795
v -0.259405 2.122648 -0.034483
v -0.299451 2.185652 -0.108890
v -0.307958 2.199037 -0.087776
v -0.280974 2.148922 -0.088967
v -0.288662 2.168435 -0.105487
v -1.432340 3.026791 0.014681
v -1.421122 3.034406 0.011235
v -1.446935 3.019696 0.002151
v -1.441719 3.021358 0.011135
v -1.412306 3.046040 -0.011001
v -1.417184 3.044256 -0.021116
v -1.425814 3.039689 -0.023853
v -1.435996 3.033538 -0.018704
v -0.774346 2.277849 0.004087
v -1.139645 2.381179 -0.022216
v -1.287621 2.619134 0.019026
v -1.292033 2.613367 0.002461
v -1.140446 2.373003 -0.040473
v -0.771506 2.264810 -0.021707
v -0.778428 2.308309 -0.002415
v -1.134865 2.403641 -0.022852
v -1.265111 2.640030 0.014378
v -1.277866 2.628791 0.023779
v -1.137733 2.391813 -0.016144
v -0.776785 2.293888 0.011480
v 0.093074 0.077906 -0.347620
v 0.118424 0.523920 -0.278871
v 0.209030 0.086650 -0.297882
v 0.189439 0.525124 -0.175759
v 0.326509 0.075478 -0.181767
v 0.283424 0.525534 -0.114718
v 0.372498 0.087755 -0.064299
v 0.266265 0.524745 0.010798
v 0.289337 0.308135 0.076403
v 0.247196 0.522700 0.113576
v 0.276200 0.289629 0.204577
v 0.219216 0.519996 0.225131
v 0.250772 -0.010189 0.373463
v 0.120790 0.517445 0.294392
v 0.078739 0.292416 0.336526
v 0.006338 0.515761 0.283344
v -0.067298 0.095075 0.369225
v -0.095282 0.515299 0.265615
v -0.184059 0.085604 0.322905
v -0.182149 0.515658 0.211470
v -0.300290 0.087641 0.214695
v -0.283901 0.516354 0.138873
v -0.351142 0.075332 0.099181
v -0.261665 0.517128 0.030957
v -0.341251 0.158809 -0.063905
v -0.287548 0.518018 -0.094998
v -0.345014 0.154213 -0.231145
v -0.229478 0.519236 -0.209416
v -0.232991 0.147085 -0.344789
v -0.118445 0.520723 -0.270382
v -0.071089 0.151294 -0.334996
v 0.003508 0.522349 -0.246158
v 0.043514 0.738136 -0.216258
v 0.126230 0.740910 -0.188613
v 0.188962 0.742524 -0.128147
v 0.223035 0.742145 -0.044805
v 0.224126 0.739311 0.047972
v 0.192055 0.734562 0.135471
v 0.130842 0.729308 0.203961
v 0.048954 0.725072 0.243039
v -0.041593 0.722926 0.247590
v -0.126865 0.722823 0.218469
v -0.193270 0.723879 0.161164
v -0.230033 0.725348 0.083867
v -0.231111 0.727012 -0.003512
v -0.196337 0.729120 -0.089730
v -0.131453 0.731825 -0.161686
v -0.047023 0.734939 -0.206614
v -0.057468 0.521536 -0.258270
v -0.173962 0.519980 -0.239899
v -0.258513 0.518627 -0.152207
v -0.274607 0.517573 -0.032020
v -0.272783 0.516741 0.084915
v -0.233025 0.516006 0.175171
v -0.138716 0.515479 0.238542
v -0.044472 0.515530 0.274480
v 0.063564 0.516603 0.288868
v 0.170003 0.518721 0.259762
v 0.233206 0.521348 0.169354
v 0.256731 0.523723 0.062187
v 0.274844 0.525140 -0.051960
v 0.236432 0.525329 -0.145238
v 0.153932 0.524522 -0.227315
v 0.060966 0.523135 -0.262514
v 0.010315 0.308134 -0.120730
v 0.094837 0.280865 -0.189668
v 0.114619 0.308134 -0.078853
v 0.210514 0.280735 -0.064312
v 0.170943 0.308249 -0.013520
v 0.158185 0.308134 0.050315
v 0.145239 0.308176 0.115511
v 0.141902 0.293224 0.197294
v 0.141967 0.287755 0.202288
v 0.135770 0.287168 0.206534
v 0.128025 0.288062 0.211655
v 0.119534 0.297617 0.208403
v 0.035965 0.308202 0.192320
v -0.043468 0.279082 0.207308
v -0.076671 0.281940 0.206327
v -0.099057 0.278422 0.184325
v -0.131467 0.308350 0.117997
v -0.172924 0.276137 0.090922
v -0.136322 0.308138 0.024351
v -0.196389 0.286901 -0.113822
v -0.208312 0.292146 -0.141788
v -0.199557 0.287010 -0.162042
v -0.188403 0.292824 -0.186040
v -0.165680 0.287054 -0.196252
v -0.150314 0.290117 -0.202664
v -0.128858 0.286957 -0.191842
v 0.121996 -0.007134 -0.352173
v 0.008643 0.299846 -0.272254
v 0.170336 -0.004357 -0.377823
v 0.194075 -0.002375 -0.320237
v 0.216305 0.292188 -0.186816
v 0.350779 -0.010014 -0.164536
v 0.397914 -0.015108 -0.148796
v 0.377920 -0.003574 -0.091625
v 0.301152 0.303970 0.020626
v 0.289337 0.308135 0.076403
v 0.278257 0.308176 0.132279
v 0.276200 0.289629 0.204577
v 0.279978 0.070442 0.315905
v 0.243454 -0.056194 0.362379
v 0.185504 0.070225 0.379664
v 0.078739 0.292416 0.336526
v 0.006570 0.288716 0.318017
v -0.083376 0.021797 0.365765
v -0.137757 -0.025666 0.373840
v -0.167241 0.013809 0.332537
v -0.201914 0.277455 0.233078
v -0.317299 0.006937 0.199973
v -0.376188 0.012944 0.171501
v -0.352403 -0.001068 0.123995
v -0.285062 0.289698 0.020797
v -0.345031 0.093864 -0.087718
v -0.388987 -0.005140 -0.162610
v -0.349442 0.086253 -0.217834
v -0.289220 0.298265 -0.288411
v -0.219388 0.075883 -0.349534
v -0.164426 -0.004641 -0.385804
v -0.095380 0.082475 -0.340706
v 0.149769 -0.026619 -0.310642
v 0.009412 0.308420 -0.198662
v 0.166647 0.308577 -0.134255
v 0.339845 -0.027922 -0.114862
v 0.238156 0.308670 0.004100
v 0.225909 0.308134 0.063786
v 0.213991 0.308278 0.124207
v 0.217487 0.234894 0.206705
v 0.248363 0.007613 0.302014
v 0.220363 -0.056194 0.328132
v 0.184506 0.008965 0.344853
v 0.101532 0.239919 0.281487
v 0.021021 0.295507 0.256812
v -0.078084 0.014344 0.333064
v -0.124253 -0.076359 0.340246
v -0.148907 0.009200 0.305465
v -0.168050 0.284601 0.177247
v -0.286926 0.022520 0.143772
v -0.211680 0.308430 0.021890
v -0.313207 0.063864 -0.104438
v -0.348263 -0.076608 -0.164153
v -0.318470 0.048736 -0.205308
v -0.243348 0.258629 -0.241934
v -0.207112 0.036475 -0.318269
v -0.167642 -0.076559 -0.344790
v -0.114416 0.050229 -0.309880
v 0.171913 0.082101 -0.389209
v 0.093074 0.077906 -0.347620
v 0.209030 0.086650 -0.297882
v 0.406857 0.065781 -0.155665
v 0.326509 0.075478 -0.181767
v 0.372498 0.087755 -0.064299
v 0.250772 -0.010189 0.373463
v 0.294187 0.161595 0.297232
v 0.161994 0.160848 0.386638
v -0.143457 0.036871 0.383954
v -0.067298 0.095075 0.369225
v -0.184059 0.085604 0.322905
v -0.386493 0.096744 0.172253
v -0.300290 0.087641 0.214695
v -0.351142 0.075332 0.099181
v -0.399341 0.058096 -0.159393
v -0.341251 0.158809 -0.063905
v -0.345014 0.154213 -0.231145
v -0.160661 0.059345 -0.395971
v -0.232991 0.147085 -0.344789
v -0.071089 0.151294 -0.334996
v 0.208355 -0.010189 0.310556
v 0.240668 0.070168 0.274143
v 0.160824 0.071741 0.327616
v -0.116255 -0.045662 0.321343
v -0.056722 0.096104 0.303468
v -0.146560 0.094572 0.266534
v -0.328127 -0.047523 -0.163626
v -0.281961 0.127931 -0.092853
v -0.287191 0.114251 -0.207660
v -0.167878 -0.046476 -0.324386
v -0.210347 0.104011 -0.286846
v -0.104273 0.117011 -0.277813
v 0.137949 0.042549 -0.284670
v 0.311971 0.042189 -0.104231
v -0.252665 0.110987 0.127505
v 0.232255 -0.083213 0.346079
v -0.124471 -0.083213 0.346699
v -0.353551 -0.083213 -0.161166
v -0.164842 -0.083213 -0.350262
v 0.370637 -0.083213 -0.131067
v -0.338347 -0.083213 0.162885
v 0.161185 -0.083213 -0.343834
vt 1.000000 0.900000
vt 1.000000 1.000000
vt 0.937500 1.000000
vt 0.937500 0.900000
vt 0.875000 1.000000
vt 0.875000 0.900000
vt 0.812500 1.000000
vt 0.812500 0.900000
vt 0.750000 1.000000
vt 0.750000 0.900000
vt 0.687500 1.000000
vt 0.687500 0.900000
vt 0.625000 1.000000
vt 0.625000 0.900000
vt 0.562500 1.000000
vt 0.562500 0.900000
vt 0.500000 1.000000
vt 0.500000 0.900000
vt 0.437500 1.000000
vt 0.437500 0.900000
vt 0.375000 1.000000
vt 0.375000 0.900000
vt 0.312500 1.000000
vt 0.312500 0.900000
vt 0.250000 1.000000
vt 0.250000 0.900000
vt 0.187500 1.000000
vt 0.187500 0.900000
vt 0.125000 1.000000
vt 0.125000 0.900000
vt 0.341844 0.471731
vt 0.250000 0.490000
vt 0.158156 0.471731
vt 0.080294 0.419706
vt 0.028269 0.341844
vt 0.010000 0.250000
vt 0.028269 0.158156
vt 0.080294 0.080294
vt 0.158156 0.028269
vt 0.250000 0.010000
vt 0.341844 0.028269
vt 0.419706 0.080294
vt 0.471731 0.158156
vt 0.490000 0.250000
vt 0.471731 0.341844
vt 0.419706 0.419706
vt 0.062500 1.000000
vt 0.062500 0.900000
vt 0.000000 1.000000
vt 0.000000 0.900000
vt 0.062500 0.547731
vt 0.062500 0.600000
vt 0.000000 0.600000
vt 0.000000 0.547731
vt 0.031250 0.547731
vt 0.062500 0.700000
vt 0.000000 0.700000
vt 0.062500 0.705086
vt 0.062500 0.800000
vt 0.000000 0.800000
vt 0.000000 0.705086
vt 0.125000 0.547731
vt 0.125000 0.600000
vt 0.093750 0.547731
vt 0.125000 0.700000
vt 0.125000 0.705086
vt 0.125000 0.800000
vt 0.187500 0.547731
vt 0.187500 0.600000
vt 0.156250 0.547731
vt 0.312500 0.705086
vt 0.312500 0.800000
vt 0.250000 0.800000
vt 0.250000 0.706498
vt 0.260412 0.705086
vt 0.250000 0.701639
vt 0.250000 0.703426
vt 0.250000 0.703428
vt 0.250000 0.701637
vt 0.187500 0.800000
vt 0.250000 0.547731
vt 0.250000 0.600000
vt 0.218750 0.547731
vt 0.312500 0.700000
vt 0.250000 0.703998
vt 0.250000 0.701339
vt 0.260351 0.700000
vt 0.176931 0.705086
vt 0.187500 0.706480
vt 0.312500 0.547731
vt 0.312500 0.600000
vt 0.281250 0.547731
vt 0.250000 0.698768
vt 0.239575 0.700000
vt 0.197926 0.700000
vt 0.187500 0.698748
vt 0.239235 0.705086
vt 0.198291 0.705086
vt 0.198371 0.705086
vt 0.239157 0.705086
vt 0.375000 0.547731
vt 0.375000 0.600000
vt 0.343750 0.547731
vt 0.375000 0.700000
vt 0.375000 0.705086
vt 0.375000 0.800000
vt 0.437500 0.547731
vt 0.437500 0.600000
vt 0.406250 0.547731
vt 0.437500 0.700000
vt 0.437500 0.705086
vt 0.437500 0.800000
vt 0.500000 0.547731
vt 0.500000 0.600000
vt 0.468750 0.547731
vt 0.500000 0.700000
vt 0.500000 0.705086
vt 0.500000 0.800000
vt 0.562500 0.547731
vt 0.562500 0.600000
vt 0.531250 0.547731
vt 0.562500 0.700000
vt 0.562500 0.705086
vt 0.562500 0.800000
vt 0.625000 0.547731
vt 0.625000 0.600000
vt 0.593750 0.547731
vt 0.625000 0.700000
vt 0.625000 0.705086
vt 0.625000 0.800000
vt 0.687500 0.547731
vt 0.687500 0.600000
vt 0.656250 0.547731
vt 0.687500 0.700000
vt 0.687500 0.705086
vt 0.687500 0.800000
vt 0.750000 0.547731
vt 0.750000 0.600000
vt 0.718750 0.547731
vt 0.750000 0.700000
vt 0.750000 0.705086
vt 0.750000 0.800000
vt 0.812500 0.547731
vt 0.812500 0.600000
vt 0.781250 0.547731
vt 0.812500 0.700000
vt 0.812500 0.705086
vt 0.812500 0.800000
vt 0.875000 0.547731
vt 0.875000 0.600000
vt 0.843750 0.547731
vt 0.875000 0.700000
vt 0.875000 0.705086
vt 0.875000 0.800000
vt 0.937500 0.547731
vt 0.937500 0.600000
vt 0.906250 0.547731
vt 0.937500 0.700000
vt 0.937500 0.705086
vt 0.937500 0.800000
vt 1.000000 0.547731
vt 1.000000 0.600000
vt 0.968750 0.547731
vt 1.000000 0.700000
vt 1.000000 0.705086
vt 1.000000 0.800000
vt 0.968750 0.523865
vt 0.937500 0.523865
vt 0.906250 0.523865
vt 0.875000 0.523866
vt 0.843750 0.523865
vt 0.812500 0.523865
vt 0.781250 0.523865
vt 0.750000 0.523865
vt 0.718750 0.523865
vt 0.687500 0.523865
vt 0.656250 0.523865
vt 0.625000 0.523865
vt 0.593750 0.523865
vt 0.562500 0.523865
vt 0.531250 0.523865
vt 0.500000 0.523865
vt 0.468750 0.523865
vt 0.437500 0.523865
vt 0.406250 0.523865
vt 0.375000 0.523865
vt 0.343750 0.523865
vt 0.312500 0.523865
vt 0.281250 0.523865
vt 0.250000 0.523865
vt 0.218750 0.523865
vt 0.187500 0.523865
vt 0.156250 0.523865
vt 0.125000 0.523865
vt 0.093750 0.523865
vt 0.062500 0.523865
vt 0.031250 0.523865
vt 0.000000 0.523865
vt 0.239551 0.700000
vt 0.197951 0.700000
vt 0.187500 0.704009
vt 0.187500 0.701324
vt 0.187500 0.701624
vt 0.187500 0.703442
vt 0.177046 0.700000
vt 0.239550 0.700000
vt 0.239167 0.705086
vt 0.198360 0.705086
vt 0.187500 0.703452
vt 0.187500 0.701615
vt 0.197951 0.700000
vt 0.239160 0.705086
vt 0.250000 0.703421
vt 0.250000 0.703418
vt 0.187500 0.703449
vt 0.187500 0.701618
vt 0.239165 0.705086
vt 0.198363 0.705086
vt 0.197951 0.700000
vt 0.239550 0.700000
vt 0.250000 0.699528
vt 0.188213 0.700000
vt 0.250028 0.705086
vt 0.187500 0.705644
vt 0.250000 0.701646
vt 0.198368 0.705086
vt 0.187500 0.703444
vt 0.239162 0.705086
vt 0.250000 0.703423
vt 0.250000 0.701644
vt 0.239551 0.700000
vt 0.250000 0.701641
vt 0.239550 0.700000
vt 0.198366 0.705086
vt 0.187500 0.703447
vt 0.197951 0.700000
vt 0.187500 0.701622
vt 0.197951 0.700000
vt 0.187500 0.701620
vt 0.031250 0.500000
vt 0.000000 0.500000
vt 0.062500 0.500000
vt 0.093750 0.500000
vt 0.125000 0.500000
vt 0.156250 0.500000
vt 0.187500 0.500000
vt 0.218750 0.500000
vt 0.250000 0.500000
vt 0.281250 0.500000
vt 0.312500 0.500000
vt 0.343750 0.500000
vt 0.375000 0.500000
vt 0.406250 0.500000
vt 0.437500 0.500000
vt 0.468750 0.500000
vt 0.500000 0.500000
vt 0.531250 0.500000
vt 0.562500 0.500000
vt 0.593750 0.500000
vt 0.625000 0.500000
vt 0.656250 0.500000
vt 0.687500 0.500000
vt 0.718750 0.500000
vt 0.750000 0.500000
vt 0.781250 0.500000
vt 0.812500 0.500000
vt 0.843750 0.500000
vt 0.875000 0.500000
vt 0.906250 0.500000
vt 0.937500 0.500000
vt 0.968750 0.500000
vt 1.000000 0.500000
vt 1.000000 0.523865
vt 0.758544 0.341389
vt 0.789335 0.412140
vt 0.832385 0.314114
vt 0.891540 0.332297
vt 0.875131 0.267694
vt 0.867163 0.222068
vt 0.854597 0.176448
vt 0.844461 0.122794
vt 0.843881 0.119824
vt 0.839094 0.116665
vt 0.833259 0.112658
vt 0.827753 0.113579
vt 0.773322 0.122663
vt 0.726719 0.127267
vt 0.704523 0.130585
vt 0.686544 0.143222
vt 0.649670 0.171595
vt 0.602502 0.148786
vt 0.649746 0.234731
vt 0.619514 0.325014
vt 0.615014 0.341730
vt 0.622739 0.354217
vt 0.631324 0.369643
vt 0.645930 0.377796
vt 0.655496 0.383669
vt 0.668359 0.379380
vt 0.795922 0.480866
vt 0.795922 0.480866
vt 0.750000 0.490000
vt 0.750000 0.490000
vt 0.841844 0.471731
vt 0.841844 0.471731
vt 0.880775 0.445718
vt 0.880775 0.445718
vt 0.919706 0.419706
vt 0.919706 0.419706
vt 0.945718 0.380775
vt 0.945718 0.380775
vt 0.971731 0.341844
vt 0.971731 0.341844
vt 0.980866 0.295922
vt 0.980866 0.295922
vt 0.990000 0.250000
vt 0.990000 0.250000
vt 0.980866 0.204078
vt 0.980866 0.204078
vt 0.971731 0.158156
vt 0.971731 0.158156
vt 0.945718 0.119225
vt 0.945718 0.119225
vt 0.919706 0.080294
vt 0.919706 0.080294
vt 0.880775 0.054282
vt 0.880775 0.054282
vt 0.841844 0.028269
vt 0.841844 0.028269
vt 0.795922 0.019134
vt 0.795922 0.019134
vt 0.750000 0.010000
vt 0.750000 0.010000
vt 0.704078 0.019134
vt 0.704078 0.019134
vt 0.658156 0.028269
vt 0.658156 0.028269
vt 0.619225 0.054282
vt 0.619225 0.054282
vt 0.580294 0.080294
vt 0.580294 0.080294
vt 0.554282 0.119225
vt 0.554282 0.119225
vt 0.528269 0.158156
vt 0.528269 0.158156
vt 0.519134 0.204078
vt 0.519134 0.204078
vt 0.510000 0.250000
vt 0.510000 0.250000
vt 0.519134 0.295922
vt 0.519134 0.295922
vt 0.528269 0.341844
vt 0.528269 0.341844
vt 0.554282 0.380775
vt 0.554282 0.380775
vt 0.580294 0.419706
vt 0.580294 0.419706
vt 0.619225 0.445718
vt 0.619225 0.445718
vt 0.658156 0.471731
vt 0.658156 0.471731
vt 0.704078 0.480866
vt 0.704078 0.480866
vt 0.823149 0.434539
vt 0.756335 0.404761
vt 0.653611 0.079883
vt 0.674732 0.065836
vt 0.653611 0.079883
vt 0.558329 0.313753
vt 0.531819 0.306699
vt 0.558329 0.313753
vt 0.871058 0.359647
vt 0.834171 0.427377
vt 0.932102 0.330379
vt 0.964030 0.339044
vt 0.969589 0.311098
vt 0.964030 0.339044
vt 0.701301 0.060894
vt 0.674732 0.065836
vt 0.929715 0.256624
vt 0.935825 0.313720
vt 0.923847 0.213226
vt 0.910871 0.170188
vt 0.895404 0.122378
vt 0.886890 0.099315
vt 0.565544 0.160897
vt 0.553216 0.133564
vt 0.565544 0.160897
vt 0.948209 0.362270
vt 0.948209 0.362270
vt 0.810371 0.066184
vt 0.836634 0.065633
vt 0.759393 0.068874
vt 0.714419 0.072646
vt 0.846988 0.063495
vt 0.865706 0.076923
vt 0.846988 0.063495
vt 0.637800 0.058920
vt 0.637800 0.058920
vt 0.618368 0.125900
vt 0.652812 0.097716
vt 0.573937 0.162804
vt 0.838574 0.463958
vt 0.862389 0.448045
vt 0.838574 0.463958
vt 0.884901 0.088891
vt 0.865706 0.076923
vt 0.589293 0.239532
vt 0.564855 0.177271
vt 0.569955 0.308871
vt 0.696080 0.034755
vt 0.701301 0.060894
vt 0.810374 0.469266
vt 0.810374 0.469266
vt 0.603928 0.396650
vt 0.586829 0.367805
vt 0.632309 0.413491
vt 0.658144 0.462583
vt 0.692352 0.467910
vt 0.658144 0.462583
vt 0.849453 0.042836
vt 0.849453 0.042836
vt 0.687777 0.428813
vt 0.850486 0.395423
vt 0.925137 0.283908
vt 0.861199 0.083695
vt 0.680517 0.078185
vt 0.593148 0.206317
vt 0.567551 0.340842
vt 0.658105 0.431999
vt 0.876268 0.061054
vt 0.903222 0.078782
vt 0.664124 0.040848
vt 0.534338 0.160559
vt 0.528644 0.189186
vt 0.537313 0.341613
vt 0.556753 0.370406
vt 0.629771 0.443426
vt 0.558507 0.341073
vt 0.574009 0.363193
vt 0.637066 0.426370
vt 0.658117 0.441146
vt 0.683583 0.440881
vt 0.827187 0.440658
vt 0.944549 0.328963
vt 0.937139 0.327119
vt 0.939837 0.331283
vt 0.557694 0.167868
vt 0.563526 0.171500
vt 0.831500 0.442239
vt 0.828180 0.435833
vt 0.903222 0.078782
vt 0.556753 0.370406
vt 0.558507 0.341073
vt 0.876268 0.061054
vt 0.637066 0.426370
vt 0.574009 0.363193
vt 0.696080 0.034755
vt 0.692352 0.467910
vt 0.658117 0.441146
vt 0.664124 0.040848
vt 0.528644 0.189186
vt 0.683583 0.440881
vt 0.553216 0.133564
vt 0.862389 0.448045
vt 0.827187 0.440658
vt 0.534338 0.160559
vt 0.969589 0.311098
vt 0.531819 0.306699
vt 0.939837 0.331283
vt 0.537313 0.341613
vt 0.884901 0.088891
vt 0.629771 0.443426
vn -0.0251 0.0213 -0.9995
vn -0.0390 0.6806 -0.7316
vn 0.2440 0.6786 -0.6928
vn 0.3437 0.0161 -0.9389
vn 0.4964 0.6757 -0.5450
vn 0.6722 0.0133 -0.7402
vn 0.6790 0.6711 -0.2977
vn 0.9116 0.0120 -0.4109
vn 0.7480 0.6637 0.0049
vn 0.9999 0.0109 -0.0053
vn 0.6971 0.6564 0.2884
vn 0.9260 0.0098 0.3775
vn 0.5569 0.6540 0.5120
vn 0.7312 0.0098 0.6821
vn 0.3432 0.6576 0.6707
vn 0.4365 0.0104 0.8996
vn 0.0593 0.6654 0.7441
vn 0.0496 0.0113 0.9987
vn -0.2539 0.6727 0.6950
vn -0.3669 0.0131 0.9302
vn -0.5183 0.6762 0.5235
vn -0.7110 0.0166 0.7030
vn -0.6815 0.6770 0.2780
vn -0.9246 0.0220 0.3803
vn -0.7356 0.6774 0.0080
vn -0.9994 0.0286 0.0177
vn -0.6878 0.6788 -0.2572
vn -0.9339 0.0332 -0.3561
vn -0.5430 0.6806 -0.4919
vn -0.7217 0.0329 -0.6914
vn -0.3155 0.6814 -0.6604
vn -0.3977 0.0279 -0.9171
vn -0.3994 0.2404 -0.8847
vn -0.4970 0.0431 -0.8667
vn -0.1392 0.0452 -0.9892
vn -0.1159 0.1438 -0.9828
vn -0.1950 0.1819 -0.9638
vn -0.3940 -0.0195 -0.9189
vn -0.0452 0.0025 -0.9990
vn -0.2998 0.0133 -0.9539
vn -0.3224 0.0208 -0.9464
vn 0.0365 0.0192 -0.9991
vn 0.0410 0.0348 -0.9986
vn -0.7242 0.2699 -0.6346
vn -0.7458 0.0415 -0.6649
vn -0.5844 0.2602 -0.7686
vn -0.5951 -0.0587 -0.8015
vn -0.5234 -0.0298 -0.8516
vn -0.6354 0.0256 -0.7718
vn -0.9351 0.2136 -0.2828
vn -0.9327 0.0493 -0.3572
vn -0.8393 0.2477 -0.4840
vn -0.8430 0.0302 0.5370
vn -0.9072 0.0196 0.4202
vn -0.9986 0.0160 0.0496
vn -0.9967 0.0292 0.0759
vn -0.9633 0.0422 0.2650
vn -0.6105 -0.3568 0.7071
vn 0.0719 -0.0206 0.9972
vn -0.2660 0.5220 0.8104
vn -0.7225 0.2935 0.6260
vn -0.9130 0.0197 -0.4074
vn -0.9932 0.1153 0.0173
vn -0.9966 0.0537 0.0619
vn -0.9867 0.1446 -0.0741
vn -0.8172 0.0441 0.5746
vn -0.8076 0.0997 0.5812
vn -0.7634 -0.2997 0.5722
vn -0.9509 0.0095 0.3094
vn -0.7580 0.0150 -0.6521
vn -0.9032 0.0336 -0.4279
vn -0.8911 0.1482 0.4288
vn -0.8687 0.0524 0.4925
vn -0.9842 0.1304 0.1196
vn -0.9967 0.0069 0.0805
vn -0.8612 -0.5036 0.0692
vn -0.8275 -0.4315 -0.3593
vn -0.9200 -0.0410 -0.3899
vn -0.8783 0.4402 0.1865
vn -0.8119 0.4872 -0.3217
vn 0.0952 0.9783 -0.1839
vn -0.0211 0.7866 0.6171
vn -0.6093 0.0807 0.7888
vn -0.6146 0.0524 0.7871
vn -0.7166 0.1056 0.6894
vn -0.6374 0.0575 0.7684
vn -0.6806 0.0353 0.7318
vn -0.7105 0.0168 0.7035
vn -0.3174 0.0799 0.9449
vn -0.3057 0.0520 0.9507
vn -0.4841 0.0722 0.8720
vn -0.3690 0.0499 0.9281
vn -0.4165 0.0312 0.9086
vn -0.4055 0.0209 0.9138
vn 0.0086 0.1007 0.9949
vn 0.0574 0.0505 0.9971
vn -0.1360 0.0829 0.9872
vn -0.0078 0.0494 0.9987
vn -0.0568 0.0382 0.9977
vn -0.0181 0.0314 0.9993
vn 0.3856 0.1756 0.9058
vn 0.4339 0.0489 0.8996
vn 0.1588 0.1320 0.9784
vn 0.3793 0.0461 0.9241
vn 0.3353 0.0431 0.9411
vn 0.3764 0.0429 0.9255
vn 0.7610 0.1848 0.6218
vn 0.7530 0.0480 0.6563
vn 0.5903 0.1840 0.7859
vn 0.7306 0.0390 0.6817
vn 0.6997 0.0492 0.7127
vn 0.7087 0.0485 0.7039
vn 0.9448 0.1299 0.3009
vn 0.9446 0.0490 0.3247
vn 0.8898 0.1521 0.4303
vn 0.9450 0.0313 0.3257
vn 0.9359 0.0460 0.3492
vn 0.9261 0.0446 0.3745
vn 0.9902 0.1348 0.0355
vn 0.9983 0.0518 -0.0276
vn 0.9783 0.1220 0.1675
vn 0.9986 0.0270 -0.0450
vn 0.9984 0.0394 -0.0393
vn 0.9994 0.0339 -0.0104
vn 0.9040 0.1854 -0.3852
vn 0.9224 0.0543 -0.3824
vn 0.9820 0.1627 -0.0963
vn 0.9212 0.0259 -0.3883
vn 0.9206 0.0355 -0.3889
vn 0.9196 0.0233 -0.3922
vn 0.6834 0.1301 -0.7184
vn 0.6925 0.0537 -0.7194
vn 0.7555 0.1476 -0.6383
vn 0.7185 0.0237 -0.6951
vn 0.7300 0.0364 -0.6824
vn 0.7063 0.0180 -0.7077
vn 0.2940 0.1911 -0.9365
vn 0.3049 0.0494 -0.9511
vn 0.6000 0.1557 -0.7847
vn 0.3821 0.0158 -0.9240
vn 0.4320 0.0387 -0.9010
vn 0.4003 0.0179 -0.9162
vn -0.0368 0.1546 -0.9873
vn -0.2549 0.1757 -0.9509
vn 0.3177 0.2598 -0.9119
vn 0.7957 0.1992 -0.5720
vn 0.6867 0.1586 -0.7095
vn 0.5419 0.1805 -0.8208
vn 0.8747 0.2647 -0.4059
vn 0.9683 0.2206 0.1175
vn 0.9719 0.1798 0.1517
vn 0.9702 0.1588 0.1829
vn 0.9584 0.1768 0.2243
vn 0.9396 0.2184 0.2637
vn 0.7760 0.2810 0.5646
vn 0.5464 0.2843 0.7878
vn 0.2625 0.2741 0.9252
vn -0.0681 0.2064 0.9761
vn -0.0654 0.1704 0.9832
vn -0.0874 0.1726 0.9811
vn -0.3540 0.1848 0.9168
vn -0.6000 0.1586 0.7842
vn -0.6047 0.1434 0.7834
vn -0.5794 0.1681 0.7975
vn -0.9048 0.2375 0.3534
vn -0.9672 0.1814 -0.1778
vn -0.9894 0.1451 0.0074
vn -0.9674 0.1739 0.1839
vn -0.9534 0.2775 -0.1187
vn -0.8587 0.3332 -0.3894
vn -0.6657 0.3789 -0.6429
vn -0.4139 0.3513 -0.8398
vn -0.1448 0.3038 -0.9417
vn 0.1531 0.2126 -0.9651
vn -0.0501 0.1611 -0.9857
vn -0.2834 -0.9552 0.0849
vn -0.2885 -0.8586 -0.4238
vn -0.5241 0.1443 -0.8394
vn -0.5743 -0.2777 -0.7701
vn -0.1789 -0.3941 -0.9015
vn -0.0041 0.4509 -0.8926
vn -0.7963 -0.0814 -0.5994
vn -0.9883 0.1267 0.0846
vn 0.2431 0.7474 0.6183
vn 0.4351 0.8968 0.0798
vn 0.1524 0.8606 -0.4859
vn -0.4913 0.5933 -0.6377
vn -0.8730 0.3677 -0.3204
vn 0.2112 0.8240 0.5258
vn -0.0273 0.0100 0.9996
vn -0.2779 -0.1363 0.9509
vn 0.5995 0.3568 -0.7165
vn -0.2130 0.0160 -0.9769
vn 0.7137 0.2993 0.6332
vn 0.9043 0.4230 -0.0569
vn -0.7861 -0.3325 -0.5210
vn -0.8889 -0.4540 0.0610
vn -0.2901 -0.7647 0.5753
vn 0.2517 0.9570 -0.1440
vn 0.1625 0.6650 -0.7290
vn 0.5474 0.6093 0.5737
vn -0.0388 -0.0487 0.9981
vn -0.2344 -0.7581 0.6085
vn -0.2759 -0.9568 0.0921
vn -0.4613 -0.6276 0.6271
vn -0.5856 -0.8040 0.1033
vn 0.6401 0.7560 -0.1372
vn 0.3870 0.5675 -0.7268
vn -0.2335 -0.8481 -0.4757
vn -0.0674 -0.2036 -0.9767
vn -0.5359 -0.6959 -0.4780
vn -0.2560 -0.0840 -0.9630
vn 0.7821 0.4717 0.4073
vn -0.1104 0.3916 -0.9135
vn -0.0324 0.1841 0.9824
vn -0.6851 0.5823 0.4376
vn -0.8742 0.4842 0.0356
vn -0.7493 0.2375 0.6182
vn -0.3751 0.0942 0.9222
vn -0.5592 0.0951 0.8236
vn -0.8394 0.1170 0.5308
vn -0.5351 0.0968 0.8392
vn -0.5002 0.1207 0.8574
vn -0.1917 0.0654 0.9793
vn -0.4128 0.1083 0.9044
vn -0.3123 0.1077 0.9439
vn -0.1295 0.0838 0.9880
vn -0.0239 0.1049 0.9942
vn -0.0279 0.1087 0.9937
vn -0.1052 0.1138 0.9879
vn 0.2527 0.1338 0.9582
vn 0.1204 0.0576 0.9911
vn 0.3043 0.1376 0.9426
vn 0.6936 0.1506 0.7044
vn 0.6620 0.1158 0.7405
vn 0.6360 0.1044 0.7646
vn 0.6991 0.1313 0.7029
vn 0.4973 0.1129 0.8602
vn 0.5684 0.1652 0.8060
vn 0.5641 0.2310 0.7927
vn 0.9621 0.2217 -0.1585
vn 0.6299 0.1393 0.7641
vn 0.4166 0.3310 0.8467
vn -0.4889 0.1966 0.8499
vn -0.0135 -0.9078 0.4192
vn -0.2565 -0.7218 0.6428
vn -0.3156 -0.9042 0.2876
vn -0.6389 -0.6942 0.3316
vn -0.1577 -0.9797 0.1239
vn 0.0139 -0.9999 0.0001
vn -0.0608 -0.9913 -0.1170
vn -0.1414 -0.9236 -0.3564
vn -0.1592 -0.6885 -0.7076
vn -0.2991 -0.8336 -0.4644
vn -0.5659 -0.7059 -0.4260
vn -0.2247 -0.9279 -0.2976
vn 0.0791 -0.9512 -0.2984
vn 0.3578 -0.8138 -0.4580
vn 0.2542 -0.7716 -0.5831
vn 0.1050 -0.8081 -0.5797
vn 0.3530 -0.9120 -0.2090
vn 0.6039 -0.7564 -0.2512
vn 0.3725 -0.9208 -0.1158
vn 0.5149 -0.8520 0.0953
vn 0.6468 -0.7627 -0.0070
vn 0.6103 -0.7772 -0.1533
vn 0.2380 -0.9422 0.2358
vn -0.1706 -0.7841 0.5968
vn -0.0207 -0.7599 0.6497
vn 0.0852 -0.8581 0.5064
vn -0.7091 -0.2970 0.6395
vn -0.0021 -0.4611 0.8873
vn 0.4789 -0.1671 0.8618
vn 0.4336 -0.2164 0.8747
vn -0.1308 -0.4392 0.8888
vn -0.7939 -0.4950 0.3531
vn 0.6750 -0.0923 0.7320
vn 0.0212 -0.1907 0.9814
vn -0.1004 -0.4457 0.8895
vn -0.0153 -0.7040 0.7100
vn 0.1628 -0.7730 0.6132
vn 0.4844 -0.6703 0.5622
vn 0.7637 -0.3605 0.5355
vn 0.3218 -0.1007 0.9414
vn -0.4936 -0.1834 0.8501
vn -0.3517 -0.4096 0.8418
vn 0.2799 -0.4537 0.8461
vn 0.5494 -0.1539 0.8213
vn -0.2001 -0.0873 0.9759
vn -0.8005 -0.2495 0.5450
vn -0.0219 -0.4904 0.8712
vn 0.3160 -0.1888 0.9298
vn -0.4114 -0.0547 0.9098
vn -0.3221 -0.9466 -0.0105
vn 0.2191 -0.5544 0.8029
vn 0.0150 -0.2406 0.9705
vn -0.7258 -0.1275 0.6760
vn 0.3737 -0.9162 0.1449
vn -0.2377 -0.2969 0.9248
vn -0.6449 -0.1928 0.7396
vn 0.1676 -0.9403 -0.2963
vn 0.6322 -0.3069 0.7114
vn -0.3138 -0.5020 0.8059
vn -0.0671 -0.7450 0.6637
vn -0.5825 -0.3867 -0.7150
vn 0.0069 -0.6532 -0.7572
vn -0.0095 -0.9935 0.1132
vn 0.3931 -0.4079 0.8240
vn -0.2954 -0.3008 0.9068
vn -0.1238 -0.9922 0.0150
vn -0.5248 -0.7083 0.4720
vn -0.7964 -0.4899 0.3546
vn 0.8660 -0.2750 -0.4177
vn 0.4145 -0.3067 0.8568
vn 0.0702 -0.9975 -0.0116
vn 0.9213 -0.3704 -0.1181
vn -0.2982 -0.8725 0.3871
vn -0.0096 -0.9999 0.0053
vn 0.0105 -0.9692 -0.2460
vn 0.1359 -0.5852 -0.7994
vn 0.2833 -0.3548 -0.8910
vn 0.8527 -0.4113 -0.3221
vn 0.2892 -0.3209 0.9019
vn -0.0374 -0.9987 0.0338
vn -0.3829 -0.3541 -0.8532
vn -0.7363 -0.6505 -0.1863
vn -0.9275 -0.3668 -0.0722
vn 0.2897 -0.9041 -0.3141
vn 0.8305 -0.4078 -0.3795
vn -0.8982 -0.4073 0.1654
vn -0.4479 -0.5845 -0.6766
vn 0.0407 -0.9974 0.0589
vn -0.9565 -0.2888 -0.0415
vn 0.4565 -0.7729 -0.4408
vn -0.3185 -0.4234 -0.8481
vn 0.7685 -0.5493 -0.3282
vn 0.3383 -0.2525 -0.9065
vn 0.8873 -0.3117 0.3400
vn 0.0426 -0.9968 -0.0682
vn 0.4958 -0.4018 -0.7699
vn 0.6018 -0.7783 -0.1791
vn 0.6469 -0.5075 0.5691
vn 0.7096 -0.2516 0.6581
vn -0.8747 -0.3557 -0.3291
vn -0.0615 -0.9976 -0.0318
vn 0.6866 -0.3644 -0.6291
vn -0.6550 -0.3504 0.6695
vn -0.0177 -0.3369 -0.9414
vn 0.9192 -0.2970 -0.2587
vn 0.0152 -0.9911 -0.1322
vn -0.5365 -0.2308 0.8117
vn 0.5556 -0.4919 0.6703
vn -0.5004 -0.4410 -0.7451
vn 0.3200 -0.4808 -0.8163
vn 0.8609 -0.5081 -0.0275
vn -0.0588 -0.4947 0.8670
vn 0.4965 -0.4867 0.7188
vn 0.9552 -0.2205 -0.1973
vn -0.3631 -0.3619 0.8586
vn -0.9159 -0.2235 0.3333
vn -0.3805 -0.3643 -0.8500
vn -0.9367 -0.3446 -0.0626
vn -0.3012 -0.1788 -0.9366
vn -0.9250 -0.1771 -0.3362
vn 0.5969 -0.6532 -0.4659
vn 0.3489 -0.3278 -0.8780
vn -0.8794 -0.3365 0.3367
vn -0.4252 -0.6504 0.6294
vn 0.7952 -0.4114 0.4455
vn -0.3018 -0.4634 0.8332
vn -0.7936 -0.4707 0.3856
usemtl None
s 1
f 36/1/1 2/2/2 4/3/3 37/4/4
f 37/4/4 4/3/3 6/5/5 41/6/6
f 41/6/6 6/5/5 8/7/7 45/8/8
f 45/8/8 8/7/7 10/9/9 49/10/10
f 49/10/10 10/9/9 12/11/11 53/12/12
f 53/12/12 12/11/11 14/13/13 57/14/14
f 57/14/14 14/13/13 16/15/15 61/16/16
f 61/16/16 16/15/15 18/17/17 65/18/18
f 65/18/18 18/17/17 20/19/19 69/20/20
f 69/20/20 20/19/19 22/21/21 73/22/22
f 73/22/22 22/21/21 24/23/23 77/24/24
f 77/24/24 24/23/23 26/25/25 81/26/26
f 81/26/26 26/25/25 28/27/27 85/28/28
f 85/28/28 28/27/27 30/29/29 89/30/30
f 4/31/3 2/32/2 32/33/31 30/34/29 28/35/27 26/36/25 24/37/23 22/38/21 20/39/19 18/40/17 16/41/15 14/42/13 12/43/11 10/44/9 8/45/7 6/46/5
f 89/30/30 30/29/29 32/47/31 93/48/32
f 93/48/32 32/47/31 2/49/2 36/50/1
f 111/51/33 96/52/34 33/53/35 112/54/36 228/55/37
f 96/52/34 95/56/38 34/57/39 33/53/35
f 128/58/40 94/59/41 35/60/42 113/61/43
f 94/59/41 93/48/32 36/50/1 35/60/42
f 110/62/44 92/63/45 96/52/34 111/51/33 227/64/46
f 92/63/45 91/65/47 95/56/38 96/52/34
f 127/66/48 90/67/49 94/59/41 128/58/40
f 90/67/49 89/30/30 93/48/32 94/59/41
f 109/68/50 88/69/51 92/63/45 110/62/44 226/70/52
f 124/71/53 78/72/54 82/73/55 148/74/56 147/75/57
f 171/76/58 178/77/59 161/78/60 164/79/61
f 86/80/62 85/28/28 89/30/30 90/67/49
f 108/81/63 84/82/64 88/69/51 109/68/50 225/83/65
f 79/84/66 124/71/53 147/75/57 146/85/67 137/86/68 140/87/69
f 152/88/70 151/89/71 86/80/62 90/67/49 127/66/48
f 82/73/55 81/26/26 85/28/28 86/80/62
f 107/90/72 80/91/73 84/82/64 108/81/63 224/92/74
f 84/82/64 139/93/75 138/94/76 141/95/77 144/96/78 88/69/51
f 145/97/79 150/98/80 158/99/81 153/100/82
f 78/72/54 77/24/24 81/26/26 82/73/55
f 106/101/83 76/102/84 80/91/73 107/90/72 223/103/85
f 76/102/84 75/104/86 79/84/66 80/91/73
f 123/105/87 74/106/88 78/72/54 124/71/53
f 74/106/88 73/22/22 77/24/24 78/72/54
f 105/107/89 72/108/90 76/102/84 106/101/83 222/109/91
f 72/108/90 71/110/92 75/104/86 76/102/84
f 122/111/93 70/112/94 74/106/88 123/105/87
f 70/112/94 69/20/20 73/22/22 74/106/88
f 104/113/95 68/114/96 72/108/90 105/107/89 221/115/97
f 68/114/96 67/116/98 71/110/92 72/108/90
f 121/117/99 66/118/100 70/112/94 122/111/93
f 66/118/100 65/18/18 69/20/20 70/112/94
f 103/119/101 64/120/102 68/114/96 104/113/95 220/121/103
f 64/120/102 63/122/104 67/116/98 68/114/96
f 120/123/105 62/124/106 66/118/100 121/117/99
f 62/124/106 61/16/16 65/18/18 66/118/100
f 102/125/107 60/126/108 64/120/102 103/119/101 219/127/109
f 60/126/108 59/128/110 63/122/104 64/120/102
f 119/129/111 58/130/112 62/124/106 120/123/105
f 58/130/112 57/14/14 61/16/16 62/124/106
f 101/131/113 56/132/114 60/126/108 102/125/107 218/133/115
f 56/132/114 55/134/116 59/128/110 60/126/108
f 118/135/117 54/136/118 58/130/112 119/129/111
f 54/136/118 53/12/12 57/14/14 58/130/112
f 100/137/119 52/138/120 56/132/114 101/131/113 217/139/121
f 52/138/120 51/140/122 55/134/116 56/132/114
f 117/141/123 50/142/124 54/136/118 118/135/117
f 50/142/124 49/10/10 53/12/12 54/136/118
f 99/143/125 48/144/126 52/138/120 100/137/119 216/145/127
f 48/144/126 47/146/128 51/140/122 52/138/120
f 116/147/129 46/148/130 50/142/124 117/141/123
f 46/148/130 45/8/8 49/10/10 50/142/124
f 98/149/131 44/150/132 48/144/126 99/143/125 215/151/133
f 44/150/132 43/152/134 47/146/128 48/144/126
f 115/153/135 42/154/136 46/148/130 116/147/129
f 42/154/136 41/6/6 45/8/8 46/148/130
f 97/155/137 40/156/138 44/150/132 98/149/131 214/157/139
f 40/156/138 39/158/140 43/152/134 44/150/132
f 114/159/141 38/160/142 42/154/136 115/153/135
f 38/160/142 37/4/4 41/6/6 42/154/136
f 112/161/36 33/162/35 40/156/138 97/155/137 213/163/143
f 33/162/35 34/164/39 39/158/140 40/156/138
f 113/165/43 35/166/42 38/160/142 114/159/141
f 35/166/42 36/1/1 37/4/4 38/160/142
f 244/167/144 213/163/143 97/155/137 182/168/145
f 243/169/146 214/157/139 98/149/131 184/170/147
f 242/171/148 215/151/133 99/143/125 186/172/149
f 241/173/150 216/145/127 100/137/119 188/174/151
f 240/175/152 217/139/121 101/131/113 190/176/153
f 239/177/154 218/133/115 102/125/107 192/178/155
f 238/179/156 219/127/109 103/119/101 194/180/157
f 237/181/158 220/121/103 104/113/95 196/182/159
f 236/183/160 221/115/97 105/107/89 198/184/161
f 235/185/162 222/109/91 106/101/83 200/186/163
f 234/187/164 223/103/85 107/90/72 202/188/165
f 233/189/166 224/92/74 108/81/63 204/190/167
f 232/191/168 225/83/65 109/68/50 206/192/169
f 231/193/170 226/70/52 110/62/44 208/194/171
f 230/195/172 227/64/46 111/51/33 210/196/173
f 229/197/174 228/55/37 112/54/36 212/198/175
f 34/164/39 113/165/43 114/159/141 39/158/140
f 39/158/140 114/159/141 115/153/135 43/152/134
f 43/152/134 115/153/135 116/147/129 47/146/128
f 47/146/128 116/147/129 117/141/123 51/140/122
f 51/140/122 117/141/123 118/135/117 55/134/116
f 55/134/116 118/135/117 119/129/111 59/128/110
f 59/128/110 119/129/111 120/123/105 63/122/104
f 63/122/104 120/123/105 121/117/99 67/116/98
f 67/116/98 121/117/99 122/111/93 71/110/92
f 71/110/92 122/111/93 123/105/87 75/104/86
f 75/104/86 123/105/87 124/71/53 79/84/66
f 141/95/77 138/94/76 156/199/176 159/200/177
f 149/201/178 142/202/179 160/203/180 157/204/181
f 88/69/51 144/96/78 143/205/182 91/65/47 92/63/45
f 91/65/47 127/66/48 128/58/40 95/56/38
f 95/56/38 128/58/40 113/61/43 34/57/39
f 163/206/183 164/79/61 161/78/60 162/207/184 165/208/185 166/209/186 167/210/187 168/211/188
f 145/97/79 148/74/56 82/73/55 86/80/62 151/89/71 150/98/80
f 143/205/182 142/202/179 149/201/178 152/88/70 127/66/48 91/65/47
f 80/91/73 79/84/66 140/87/69 139/93/75 84/82/64
f 153/100/82 175/212/189 180/213/190 154/214/191
f 83/215/192 133/216/193 167/210/187 166/209/186
f 177/217/194 130/218/195 165/208/185 162/207/184
f 134/219/196 172/220/197 163/206/183 168/211/188
f 137/86/68 138/221/76 139/93/75 140/87/69
f 141/95/77 142/222/179 143/205/182 144/96/78
f 145/97/79 146/223/67 147/75/57 148/74/56
f 149/201/178 150/224/80 151/89/71 152/88/70
f 137/86/68 155/225/198 156/199/176 138/94/76
f 160/203/180 142/202/179 141/95/77 159/200/177
f 149/201/178 157/204/181 158/99/81 150/98/80
f 154/214/191 146/85/67 145/97/79 153/100/82
f 134/219/196 168/211/188 167/210/187 133/216/193
f 126/226/199 158/99/81 157/204/181 125/227/200
f 171/76/58 164/79/61 163/206/183 172/220/197
f 177/217/194 162/207/184 161/78/60 178/77/59
f 137/86/68 146/85/67 154/214/191 155/225/198
f 175/212/189 176/228/201 179/229/202 180/213/190
f 176/228/201 177/217/194 178/77/59 179/229/202
f 155/225/198 169/230/203 174/231/204 156/199/176
f 169/230/203 170/232/205 173/233/206 174/231/204
f 170/232/205 171/76/58 172/220/197 173/233/206
f 165/208/185 130/218/195 83/215/192 166/209/186
f 130/218/195 129/234/207 87/235/208 83/215/192
f 129/234/207 126/226/199 125/227/200 87/235/208
f 159/200/177 136/236/209 131/237/210 160/203/180
f 136/236/209 135/238/211 132/239/212 131/237/210
f 135/238/211 134/219/196 133/216/193 132/239/212
f 159/200/177 156/199/176 174/231/204 136/236/209
f 136/236/209 174/231/204 173/233/206 135/238/211
f 135/238/211 173/233/206 172/220/197 134/219/196
f 153/100/82 158/99/81 126/226/199 175/212/189
f 175/212/189 126/226/199 129/234/207 176/228/201
f 176/228/201 129/234/207 130/218/195 177/217/194
f 157/204/181 160/203/180 131/237/210 125/227/200
f 125/227/200 131/237/210 132/239/212 87/235/208
f 87/235/208 132/239/212 133/216/193 83/215/192
f 155/225/198 154/214/191 180/213/190 169/230/203
f 169/230/203 180/213/190 179/229/202 170/232/205
f 170/232/205 179/229/202 178/77/59 171/76/58
f 211/240/213 229/197/174 212/198/175 1/241/214
f 31/242/215 210/196/173 229/197/174 211/240/213
f 210/196/173 111/51/33 228/55/37 229/197/174
f 209/243/216 230/195/172 210/196/173 31/242/215
f 29/244/217 208/194/171 230/195/172 209/243/216
f 208/194/171 110/62/44 227/64/46 230/195/172
f 207/245/218 231/193/170 208/194/171 29/244/217
f 27/246/219 206/192/169 231/193/170 207/245/218
f 206/192/169 109/68/50 226/70/52 231/193/170
f 205/247/220 232/191/168 206/192/169 27/246/219
f 25/248/221 204/190/167 232/191/168 205/247/220
f 204/190/167 108/81/63 225/83/65 232/191/168
f 203/249/222 233/189/166 204/190/167 25/248/221
f 23/250/223 202/188/165 233/189/166 203/249/222
f 202/188/165 107/90/72 224/92/74 233/189/166
f 201/251/224 234/187/164 202/188/165 23/250/223
f 21/252/225 200/186/163 234/187/164 201/251/224
f 200/186/163 106/101/83 223/103/85 234/187/164
f 199/253/226 235/185/162 200/186/163 21/252/225
f 19/254/227 198/184/161 235/185/162 199/253/226
f 198/184/161 105/107/89 222/109/91 235/185/162
f 197/255/228 236/183/160 198/184/161 19/254/227
f 17/256/229 196/182/159 236/183/160 197/255/228
f 196/182/159 104/113/95 221/115/97 236/183/160
f 195/257/230 237/181/158 196/182/159 17/256/229
f 15/258/231 194/180/157 237/181/158 195/257/230
f 194/180/157 103/119/101 220/121/103 237/181/158
f 193/259/232 238/179/156 194/180/157 15/258/231
f 13/260/233 192/178/155 238/179/156 193/259/232
f 192/178/155 102/125/107 219/127/109 238/179/156
f 191/261/234 239/177/154 192/178/155 13/260/233
f 11/262/235 190/176/153 239/177/154 191/261/234
f 190/176/153 101/131/113 218/133/115 239/177/154
f 189/263/236 240/175/152 190/176/153 11/262/235
f 9/264/237 188/174/151 240/175/152 189/263/236
f 188/174/151 100/137/119 217/139/121 240/175/152
f 187/265/238 241/173/150 188/174/151 9/264/237
f 7/266/239 186/172/149 241/173/150 187/265/238
f 186/172/149 99/143/125 216/145/127 241/173/150
f 185/267/240 242/171/148 186/172/149 7/266/239
f 5/268/241 184/170/147 242/171/148 185/267/240
f 184/170/147 98/149/131 215/151/133 242/171/148
f 183/269/242 243/169/146 184/170/147 5/268/241
f 3/270/243 182/168/145 243/169/146 183/269/242
f 182/168/145 97/155/137 214/157/139 243/169/146
f 181/271/244 244/167/144 182/168/145 3/270/243
f 1/272/214 212/273/175 244/167/144 181/271/244
f 212/273/175 112/161/36 213/163/143 244/167/144
f 245/274/245 246/275/246 247/276/247 248/277/248 249/278/249 250/279/250 251/280/251 252/281/252 253/282/253 254/283/254 255/284/255 256/285/256 257/286/257 258/287/258 259/288/259 260/289/260 261/290/261 262/291/262 263/292/263 264/293/264 265/294/265 266/295/266 267/296/267 268/297/268 269/298/269 270/299/270
f 181/300/244 330/301/271 272/302/272 1/303/214
f 3/304/243 329/305/273 330/301/271 181/300/244
f 183/306/242 331/307/274 329/305/273 3/304/243
f 5/308/241 275/309/275 331/307/274 183/306/242
f 185/310/240 333/311/276 275/309/275 5/308/241
f 7/312/239 332/313/277 333/311/276 185/310/240
f 187/314/238 334/315/278 332/313/277 7/312/239
f 9/316/237 279/317/279 334/315/278 187/314/238
f 189/318/236 280/319/280 279/317/279 9/316/237
f 11/320/235 281/321/281 280/319/280 189/318/236
f 191/322/234 282/323/282 281/321/281 11/320/235
f 13/324/233 336/325/283 282/323/282 191/322/234
f 193/326/232 335/327/284 336/325/283 13/324/233
f 15/328/231 337/329/285 335/327/284 193/326/232
f 195/330/230 286/331/286 337/329/285 15/328/231
f 17/332/229 287/333/287 286/331/286 195/330/230
f 197/334/228 339/335/288 287/333/287 17/332/229
f 19/336/227 338/337/289 339/335/288 197/334/228
f 199/338/226 340/339/290 338/337/289 19/336/227
f 21/340/225 291/341/291 340/339/290 199/338/226
f 201/342/224 342/343/292 291/341/291 21/340/225
f 23/344/223 341/345/293 342/343/292 201/342/224
f 203/346/222 343/347/294 341/345/293 23/344/223
f 25/348/221 295/349/295 343/347/294 203/346/222
f 205/350/220 345/351/296 295/349/295 25/348/221
f 27/352/219 344/353/297 345/351/296 205/350/220
f 207/354/218 346/355/298 344/353/297 27/352/219
f 29/356/217 299/357/299 346/355/298 207/354/218
f 209/358/216 348/359/300 299/357/299 29/356/217
f 31/360/215 347/361/301 348/359/300 209/358/216
f 211/362/213 349/363/302 347/361/301 31/360/215
f 1/303/214 272/302/272 349/363/302 211/362/213
f 362/364/303 304/365/304 272/302/272 330/301/271
f 318/366/305 317/367/306 366/368/307
f 322/369/308 296/370/309 367/371/310
f 305/372/311 362/373/303 331/307/274 275/309/275
f 363/374/312 305/372/311 275/309/275 333/311/276
f 277/375/313 278/376/314 369/377/315
f 317/367/306 316/378/316 366/379/307
f 307/380/317 363/381/312 334/315/278 279/317/279
f 308/382/318 307/380/317 279/317/279 280/319/280
f 309/383/319 308/382/318 280/319/280 281/321/281
f 310/384/320 309/383/319 281/321/281 282/323/282
f 351/385/321 310/384/320 282/323/282 336/325/283
f 320/386/322 292/387/323 370/388/324
f 276/389/325 277/375/313 369/390/315
f 314/391/326 352/392/327 337/329/285 286/331/286
f 315/393/328 314/391/326 286/331/286 287/333/287
f 354/394/329 315/393/328 287/333/287 339/335/288
f 313/395/330 312/396/331 365/397/332
f 290/398/333 318/366/305 366/399/307
f 319/400/334 355/401/335 340/339/290 291/341/291
f 364/402/336 319/400/334 291/341/291 342/343/292
f 273/403/337 274/404/338 371/405/339
f 312/396/331 311/406/340 365/407/332
f 321/408/341 364/409/336 343/347/294 295/349/295
f 357/410/342 321/408/341 295/349/295 345/351/296
f 316/378/316 288/411/343 366/412/307
f 271/413/344 273/403/337 371/414/339
f 325/415/345 358/416/346 346/355/298 299/357/299
f 360/417/347 325/415/345 299/357/299 348/359/300
f 301/418/348 302/419/349 368/420/350
f 285/421/351 313/395/330 365/422/332
f 304/365/304 361/423/352 349/363/302 272/302/272
f 246/424/246 245/274/245 304/365/304 362/364/303
f 247/276/247 246/275/246 362/373/303 305/372/311
f 248/425/248 247/276/247 305/372/311 363/374/312
f 249/278/249 248/277/248 363/381/312 307/380/317
f 250/279/250 249/278/249 307/380/317 308/382/318
f 251/280/251 250/279/250 308/382/318 309/383/319
f 252/281/252 251/280/251 309/383/319 310/384/320
f 253/282/253 252/281/252 310/384/320 351/385/321
f 254/283/254 253/282/253 351/385/321 350/426/353
f 255/284/255 254/283/254 350/426/353 352/392/327
f 256/285/256 255/284/255 352/392/327 314/391/326
f 257/286/257 256/285/256 314/391/326 315/393/328
f 258/287/258 257/286/257 315/393/328 354/394/329
f 259/288/259 258/287/258 354/394/329 353/427/354
f 260/289/260 259/288/259 353/427/354 355/401/335
f 261/290/261 260/289/260 355/401/335 319/400/334
f 262/428/262 261/290/261 319/400/334 364/402/336
f 263/292/263 262/291/262 364/409/336 321/408/341
f 264/293/264 263/292/263 321/408/341 357/410/342
f 265/294/265 264/293/264 357/410/342 356/429/355
f 266/295/266 265/294/265 356/429/355 358/416/346
f 267/296/267 266/295/266 358/416/346 325/415/345
f 268/297/268 267/296/267 325/415/345 360/417/347
f 269/298/269 268/297/268 360/417/347 359/430/356
f 270/299/270 269/298/269 359/430/356 361/423/352
f 245/274/245 270/299/270 361/423/352 304/365/304
f 273/403/337 271/413/344 330/301/271 329/305/273
f 274/404/338 273/403/337 329/305/273 331/307/274
f 277/375/313 276/389/325 333/311/276 332/313/277
f 278/376/314 277/375/313 332/313/277 334/315/278
f 284/431/357 283/432/358 336/325/283 335/327/284
f 285/421/351 284/431/357 335/327/284 337/329/285
f 289/433/359 288/411/343 339/335/288 338/337/289
f 290/398/333 289/433/359 338/337/289 340/339/290
f 293/434/360 292/387/323 342/343/292 341/345/293
f 294/435/361 293/434/360 341/345/293 343/347/294
f 297/436/362 296/370/309 345/351/296 344/353/297
f 298/437/363 297/436/362 344/353/297 346/355/298
f 301/418/348 300/438/364 348/359/300 347/361/301
f 302/419/349 301/418/348 347/361/301 349/363/302
f 311/406/340 312/396/331 350/426/353 351/385/321
f 312/396/331 313/395/330 352/392/327 350/426/353
f 316/378/316 317/367/306 353/427/354 354/394/329
f 317/367/306 318/366/305 355/401/335 353/427/354
f 322/369/308 323/439/365 356/429/355 357/410/342
f 323/439/365 324/440/366 358/416/346 356/429/355
f 326/441/367 327/442/368 359/430/356 360/417/347
f 327/442/368 328/443/369 361/423/352 359/430/356
f 271/413/344 303/444/370 362/364/303 330/301/271
f 306/445/371 278/376/314 334/315/278 363/446/312
f 276/389/325 306/447/371 363/374/312 333/311/276
f 283/432/358 311/406/340 351/385/321 336/325/283
f 313/395/330 285/421/351 337/329/285 352/392/327
f 288/411/343 316/378/316 354/394/329 339/335/288
f 318/366/305 290/398/333 340/339/290 355/401/335
f 292/387/323 320/386/322 364/402/336 342/343/292
f 296/370/309 322/369/308 357/410/342 345/351/296
f 324/440/366 298/437/363 346/355/298 358/416/346
f 300/438/364 326/441/367 360/417/347 348/359/300
f 328/443/369 302/419/349 349/363/302 361/423/352
f 320/448/322 294/435/361 343/347/294 364/449/336
f 303/450/370 274/404/338 331/307/274 362/451/303
f 283/432/358 284/431/357 365/452/332
f 298/437/363 324/440/366 367/453/310
f 323/439/365 322/369/308 367/454/310
f 284/431/357 285/421/351 365/455/332
f 326/441/367 300/438/364 368/456/350
f 324/440/366 323/439/365 367/457/310
f 288/411/343 289/433/359 366/458/307
f 302/419/349 328/443/369 368/459/350
f 327/442/368 326/441/367 368/460/350
f 289/433/359 290/398/333 366/461/307
f 294/435/361 320/448/322 370/462/324
f 328/443/369 327/442/368 368/463/350
f 292/387/323 293/434/360 370/464/324
f 274/404/338 303/450/370 371/465/339
f 303/444/370 271/413/344 371/466/339
f 293/434/360 294/435/361 370/467/324
f 278/376/314 306/445/371 369/468/315
f 296/370/309 297/436/362 367/469/310
f 306/447/371 276/389/325 369/470/315
f 297/436/362 298/437/363 367/471/310
f 311/406/340 283/432/358 365/472/332
f 300/438/364 301/418/348 368/473/350
o Cone
v 0.000000 2.659889 -1.742854
v 0.340014 2.659889 -1.709366
v 0.666961 2.659889 -1.610187
v 0.968278 2.659889 -1.449130
v 1.232384 2.659889 -1.232384
v 1.449130 2.659889 -0.968278
v 1.610187 2.659889 -0.666961
v 1.709366 2.659889 -0.340014
v 1.742854 2.659889 0.000000
v 1.709366 2.659889 0.340014
v 1.610187 2.659889 0.666961
v 1.449130 2.659889 0.968278
v 1.232384 2.659889 1.232384
v 0.968278 2.659889 1.449130
v 0.666962 2.659889 1.610187
v 0.340014 2.659889 1.709366
v -0.000000 2.659889 1.742854
v -0.340014 2.659889 1.709366
v -0.666961 2.659889 1.610187
v -0.968278 2.659889 1.449130
v -1.232384 2.659889 1.232384
v -1.449130 2.659889 0.968278
v -1.610187 2.659889 0.666962
v -1.709366 2.659889 0.340014
v -1.742854 2.659889 -0.000000
v -1.709366 2.659889 -0.340014
v -1.610187 2.659889 -0.666962
v -1.449131 2.659889 -0.968278
v -1.232384 2.659889 -1.232384
v -0.968278 2.659889 -1.449130
v -0.666961 2.659889 -1.610187
v -0.340014 2.659889 -1.709366
v 0.000000 7.981806 0.000000
vt 0.250000 0.490000
vt 0.250000 0.250000
vt 0.296822 0.485388
vt 0.341844 0.471731
vt 0.383337 0.449553
vt 0.419706 0.419706
vt 0.449553 0.383337
vt 0.471731 0.341844
vt 0.485388 0.296822
vt 0.490000 0.250000
vt 0.485388 0.203178
vt 0.471731 0.158156
vt 0.449553 0.116663
vt 0.419706 0.080294
vt 0.383337 0.050447
vt 0.341844 0.028269
vt 0.296822 0.014612
vt 0.250000 0.010000
vt 0.203178 0.014612
vt 0.158156 0.028269
vt 0.116663 0.050447
vt 0.080294 0.080294
vt 0.050447 0.116663
vt 0.028269 0.158156
vt 0.014612 0.203178
vt 0.010000 0.250000
vt 0.014612 0.296822
vt 0.028269 0.341844
vt 0.050447 0.383337
vt 0.080294 0.419706
vt 0.116663 0.449553
vt 0.158156 0.471731
vt 0.750000 0.490000
vt 0.796822 0.485388
vt 0.841844 0.471731
vt 0.883337 0.449553
vt 0.919706 0.419706
vt 0.949553 0.383337
vt 0.971731 0.341844
vt 0.985388 0.296822
vt 0.990000 0.250000
vt 0.985388 0.203178
vt 0.971731 0.158156
vt 0.949553 0.116663
vt 0.919706 0.080294
vt 0.883337 0.050447
vt 0.841844 0.028269
vt 0.796822 0.014612
vt 0.750000 0.010000
vt 0.703178 0.014612
vt 0.658156 0.028269
vt 0.616663 0.050447
vt 0.580294 0.080294
vt 0.550447 0.116663
vt 0.528269 0.158156
vt 0.514612 0.203178
vt 0.510000 0.250000
vt 0.514612 0.296822
vt 0.528269 0.341844
vt 0.550447 0.383337
vt 0.580294 0.419706
vt 0.616663 0.449553
vt 0.658156 0.471731
vt 0.703178 0.485388
vt 0.203178 0.485388
vn 0.0932 0.3099 -0.9462
vn 0.2760 0.3099 -0.9098
vn 0.4482 0.3099 -0.8385
vn 0.6032 0.3099 -0.7350
vn 0.7350 0.3099 -0.6032
vn 0.8385 0.3099 -0.4482
vn 0.9098 0.3099 -0.2760
vn 0.9462 0.3099 -0.0932
vn 0.9462 0.3099 0.0932
vn 0.9098 0.3099 0.2760
vn 0.8385 0.3099 0.4482
vn 0.7350 0.3099 0.6032
vn 0.6032 0.3099 0.7350
vn 0.4482 0.3099 0.8385
vn 0.2760 0.3099 0.9098
vn 0.0932 0.3099 0.9462
vn -0.0932 0.3099 0.9462
vn -0.2760 0.3099 0.9098
vn -0.4482 0.3099 0.8385
vn -0.6032 0.3099 0.7350
vn -0.7350 0.3099 0.6032
vn -0.8385 0.3099 0.4482
vn -0.9098 0.3099 0.2760
vn -0.9462 0.3099 0.0932
vn -0.9462 0.3099 -0.0932
vn -0.9098 0.3099 -0.2760
vn -0.8385 0.3099 -0.4482
vn -0.7350 0.3099 -0.6032
vn -0.6032 0.3099 -0.7350
vn -0.4482 0.3099 -0.8385
vn 0.0000 -1.0000 -0.0000
vn -0.2760 0.3099 -0.9098
vn -0.0932 0.3099 -0.9462
usemtl None
s off
f 372/474/372 404/475/372 373/476/372
f 373/476/373 404/475/373 374/477/373
f 374/477/374 404/475/374 375/478/374
f 375/478/375 404/475/375 376/479/375
f 376/479/376 404/475/376 377/480/376
f 377/480/377 404/475/377 378/481/377
f 378/481/378 404/475/378 379/482/378
f 379/482/379 404/475/379 380/483/379
f 380/483/380 404/475/380 381/484/380
f 381/484/381 404/475/381 382/485/381
f 382/485/382 404/475/382 383/486/382
f 383/486/383 404/475/383 384/487/383
f 384/487/384 404/475/384 385/488/384
f 385/488/385 404/475/385 386/489/385
f 386/489/386 404/475/386 387/490/386
f 387/490/387 404/475/387 388/491/387
f 388/491/388 404/475/388 389/492/388
f 389/492/389 404/475/389 390/493/389
f 390/493/390 404/475/390 391/494/390
f 391/494/391 404/475/391 392/495/391
f 392/495/392 404/475/392 393/496/392
f 393/496/393 404/475/393 394/497/393
f 394/497/394 404/475/394 395/498/394
f 395/498/395 404/475/395 396/499/395
f 396/499/396 404/475/396 397/500/396
f 397/500/397 404/475/397 398/501/397
f 398/501/398 404/475/398 399/502/398
f 399/502/399 404/475/399 400/503/399
f 400/503/400 404/475/400 401/504/400
f 401/504/401 404/475/401 402/505/401
f 372/506/402 373/507/402 374/508/402 375/509/402 376/510/402 377/511/402 378/512/402 379/513/402 380/514/402 381/515/402 382/516/402 383/517/402 384/518/402 385/519/402 386/520/402 387/521/402 388/522/402 389/523/402 390/524/402 391/525/402 392/526/402 393/527/402 394/528/402 395/529/402 396/530/402 397/531/402 398/532/402 399/533/402 400/534/402 401/535/402 402/536/402 403/537/402
f 402/505/403 404/475/403 403/538/403
f 403/538/404 404/475/404 372/474/404
